<svg xmlns="http://www.w3.org/2000/svg" viewBox="0 0 64 64" width="64" height="64">
  <!-- Left document (source .sch) -->
  <path d="M6 12 L6 52 L24 52 L24 18 L18 12 Z" fill="none" stroke="#2196F3" stroke-width="2.5" stroke-linejoin="round"/>
  <!-- Dog-ear fold on left document -->
  <path d="M18 12 L18 18 L24 18" fill="none" stroke="#2196F3" stroke-width="2.5" stroke-linejoin="round"/>
  <!-- Content lines on left document -->
  <line x1="10" y1="26" x2="20" y2="26" stroke="#2196F3" stroke-width="1.5" stroke-linecap="round" opacity="0.5"/>
  <line x1="10" y1="32" x2="18" y2="32" stroke="#2196F3" stroke-width="1.5" stroke-linecap="round" opacity="0.5"/>
  <line x1="10" y1="38" x2="20" y2="38" stroke="#2196F3" stroke-width="1.5" stroke-linecap="round" opacity="0.5"/>

  <!-- Right document (target .chn) -->
  <path d="M40 12 L40 52 L58 52 L58 18 L52 12 Z" fill="none" stroke="#2196F3" stroke-width="2.5" stroke-linejoin="round"/>
  <!-- Dog-ear fold on right document -->
  <path d="M52 12 L52 18 L58 18" fill="none" stroke="#2196F3" stroke-width="2.5" stroke-linejoin="round"/>
  <!-- Content lines on right document -->
  <line x1="44" y1="26" x2="54" y2="26" stroke="#2196F3" stroke-width="1.5" stroke-linecap="round" opacity="0.5"/>
  <line x1="44" y1="32" x2="52" y2="32" stroke="#2196F3" stroke-width="1.5" stroke-linecap="round" opacity="0.5"/>
  <line x1="44" y1="38" x2="54" y2="38" stroke="#2196F3" stroke-width="1.5" stroke-linecap="round" opacity="0.5"/>

  <!-- Arrow between documents -->
  <line x1="26" y1="32" x2="36" y2="32" stroke="#2196F3" stroke-width="2.5" stroke-linecap="round"/>
  <polyline points="33,28 38,32 33,36" fill="none" stroke="#2196F3" stroke-width="2.5" stroke-linecap="round" stroke-linejoin="round"/>
</svg>
