<svg xmlns="http://www.w3.org/2000/svg" viewBox="0 0 64 64" width="64" height="64">
  <!-- Axes -->
  <line x1="12" y1="8" x2="12" y2="52" stroke="#9C27B0" stroke-width="2.5" stroke-linecap="round"/>
  <line x1="12" y1="52" x2="56" y2="52" stroke="#9C27B0" stroke-width="2.5" stroke-linecap="round"/>

  <!-- Axis ticks - Y -->
  <line x1="9" y1="18" x2="12" y2="18" stroke="#9C27B0" stroke-width="1.5" stroke-linecap="round"/>
  <line x1="9" y1="30" x2="12" y2="30" stroke="#9C27B0" stroke-width="1.5" stroke-linecap="round"/>
  <line x1="9" y1="42" x2="12" y2="42" stroke="#9C27B0" stroke-width="1.5" stroke-linecap="round"/>

  <!-- Axis ticks - X -->
  <line x1="24" y1="52" x2="24" y2="55" stroke="#9C27B0" stroke-width="1.5" stroke-linecap="round"/>
  <line x1="36" y1="52" x2="36" y2="55" stroke="#9C27B0" stroke-width="1.5" stroke-linecap="round"/>
  <line x1="48" y1="52" x2="48" y2="55" stroke="#9C27B0" stroke-width="1.5" stroke-linecap="round"/>

  <!-- Characteristic curve 1 (gm/ID style - saturating) -->
  <path d="M14,46 C20,44 26,34 32,24 Q38,16 44,14 Q50,12 54,12"
        fill="none" stroke="#9C27B0" stroke-width="2.5" stroke-linecap="round" stroke-linejoin="round"/>

  <!-- Characteristic curve 2 (lower curve, lighter) -->
  <path d="M14,48 C20,47 26,42 32,36 Q38,30 44,27 Q50,25 54,25"
        fill="none" stroke="#9C27B0" stroke-width="2" stroke-linecap="round" stroke-linejoin="round" opacity="0.55"/>

  <!-- Characteristic curve 3 (lowest curve, lightest) -->
  <path d="M14,50 C20,49 26,47 32,43 Q38,39 44,37 Q50,36 54,36"
        fill="none" stroke="#9C27B0" stroke-width="1.5" stroke-linecap="round" stroke-linejoin="round" opacity="0.3"/>

  <!-- Small data point markers on curve 1 -->
  <circle cx="26" cy="34" r="2" fill="#9C27B0"/>
  <circle cx="38" cy="16" r="2" fill="#9C27B0"/>
  <circle cx="50" cy="12.5" r="2" fill="#9C27B0"/>
</svg>
